# This file uses centimeters as units for non-parametric coordinates.

mtllib tree02.mtl
g default
v 82.086336 118.036670 31.890355
v 82.252329 113.451958 33.533069
v 82.819259 108.371845 29.013660
v 82.911539 109.814632 27.155944
v 81.131674 114.661876 27.164122
v 79.862546 114.472620 28.581544
v 83.847971 119.598290 31.122564
v 88.171020 113.869682 29.907816
v 87.298319 110.015239 30.210083
v 86.560595 115.764607 32.606095
v 84.165865 108.107528 30.078269
v 80.096477 113.926397 31.556175
v 85.039964 118.549753 27.614319
v 80.829827 113.668457 32.911974
v 84.045788 110.107781 33.381189
v 81.439999 110.934728 32.878379
v 85.812382 109.330391 28.283195
v 81.809968 109.933290 32.409107
v 86.939118 110.071732 28.650980
v 87.851334 111.667221 31.525714
v 84.853676 108.916279 31.802599
v 84.117873 112.535182 33.725506
v 86.851366 112.644015 32.730543
v 83.963402 110.848488 26.368012
v 85.534586 112.640393 26.517460
v 84.009438 116.615697 26.459752
v 81.116287 117.530014 28.708410
v 83.741794 119.794777 30.175895
v 81.355207 118.277152 30.194523
v 87.197287 116.892359 31.282726
v 85.312982 117.406045 32.401472
v 82.710290 116.685506 26.638214
v 80.445561 111.576077 28.709535
v 81.466577 109.630892 28.959490
v 85.854151 118.275843 28.652990
v 81.041949 112.825522 27.298008
v 82.748524 117.356786 32.765467
v 83.798120 115.720755 33.843701
v 85.455001 115.843975 33.687193
v 87.590459 115.795095 28.532499
v 86.895154 112.613794 27.229125
vn 0.495545 0.853058 -0.163483
vn 0.495545 0.853058 -0.163483
vn 0.495545 0.853058 -0.163483
vn 0.623854 0.776209 0.091137
vn 0.623854 0.776209 0.091137
vn 0.623854 0.776209 0.091137
vn 0.623251 0.776787 0.090337
vn 0.623251 0.776787 0.090337
vn 0.623251 0.776787 0.090337
vn 0.609543 0.536100 0.583998
vn 0.609543 0.536100 0.583998
vn 0.609543 0.536100 0.583998
vn -0.482133 0.328622 0.812130
vn -0.482133 0.328622 0.812130
vn -0.482133 0.328622 0.812130
vn -0.379482 0.133197 0.915561
vn -0.379482 0.133197 0.915561
vn -0.379482 0.133197 0.915561
vn -0.411131 -0.102896 0.905751
vn -0.411131 -0.102896 0.905751
vn -0.411131 -0.102896 0.905751
vn -0.832983 0.369801 0.411567
vn -0.832983 0.369800 0.411567
vn -0.832983 0.369800 0.411567
vn 0.520602 -0.847910 -0.100106
vn 0.520602 -0.847910 -0.100106
vn 0.520602 -0.847910 -0.100106
vn 0.504361 -0.841530 0.193515
vn 0.504361 -0.841529 0.193515
vn 0.504361 -0.841530 0.193515
vn 0.343559 -0.141885 0.928351
vn 0.343559 -0.141885 0.928351
vn 0.343559 -0.141885 0.928351
vn 0.077441 0.015239 -0.996880
vn 0.077441 0.015239 -0.996881
vn 0.077441 0.015239 -0.996880
vn 0.525493 0.211895 -0.823989
vn 0.525493 0.211895 -0.823989
vn 0.525493 0.211895 -0.823989
vn -0.350148 0.760372 -0.547020
vn -0.350148 0.760372 -0.547020
vn -0.350148 0.760372 -0.547020
vn -0.510261 0.798505 -0.319411
vn -0.510261 0.798505 -0.319411
vn -0.510261 0.798505 -0.319411
vn -0.352114 0.740048 -0.573013
vn -0.352114 0.740048 -0.573013
vn -0.352114 0.740048 -0.573013
vn -0.667700 0.350137 -0.656948
vn -0.667700 0.350137 -0.656948
vn -0.667700 0.350137 -0.656948
vn -0.726108 0.322942 -0.607022
vn -0.726108 0.322942 -0.607022
vn -0.726108 0.322942 -0.607022
vn -0.832413 -0.190542 -0.520368
vn -0.832413 -0.190542 -0.520368
vn -0.832413 -0.190541 -0.520368
vn -0.979858 -0.195406 0.041176
vn -0.979858 -0.195406 0.041176
vn -0.979858 -0.195406 0.041176
vn -0.918112 0.370669 0.140267
vn -0.918112 0.370669 0.140267
vn -0.918112 0.370669 0.140267
vn -0.334844 -0.052234 -0.940825
vn -0.334844 -0.052234 -0.940825
vn -0.334844 -0.052234 -0.940825
vn -0.294112 -0.018906 -0.955584
vn -0.294112 -0.018906 -0.955584
vn -0.294112 -0.018906 -0.955584
vn -0.135183 0.016838 -0.990678
vn -0.135183 0.016838 -0.990678
vn -0.135183 0.016838 -0.990678
vn -0.085450 0.543879 -0.834801
vn -0.085450 0.543879 -0.834801
vn -0.085450 0.543879 -0.834801
vn 0.883830 0.100574 0.456870
vn 0.883830 0.100574 0.456870
vn 0.883830 0.100574 0.456870
vn 0.524003 0.188981 -0.830486
vn 0.524003 0.188981 -0.830486
vn 0.524003 0.188981 -0.830486
vn 0.963508 -0.117784 -0.240372
vn 0.963508 -0.117784 -0.240372
vn 0.963508 -0.117784 -0.240372
vn -0.268468 0.651650 0.709421
vn -0.268467 0.651650 0.709421
vn -0.268468 0.651650 0.709421
vn 0.435633 -0.311541 -0.844492
vn 0.435633 -0.311541 -0.844492
vn 0.435633 -0.311541 -0.844492
vn 0.479969 -0.421917 -0.769165
vn 0.479969 -0.421917 -0.769165
vn 0.479969 -0.421917 -0.769165
vn 0.811457 0.573427 -0.112776
vn 0.811457 0.573427 -0.112776
vn 0.811457 0.573427 -0.112776
vn 0.606537 -0.609558 0.510443
vn 0.606537 -0.609558 0.510443
vn 0.606537 -0.609558 0.510443
vn -0.570086 -0.634917 -0.521423
vn -0.570086 -0.634917 -0.521423
vn -0.570086 -0.634917 -0.521423
vn -0.260458 -0.830016 0.493190
vn -0.260458 -0.830016 0.493190
vn -0.260458 -0.830015 0.493190
vn 0.729118 0.531274 -0.431434
vn 0.729118 0.531274 -0.431434
vn 0.729118 0.531274 -0.431434
vn 0.539396 0.494907 0.681262
vn 0.539396 0.494907 0.681262
vn 0.539396 0.494907 0.681262
vn 0.507952 0.661391 0.551858
vn 0.507952 0.661391 0.551858
vn 0.507952 0.661391 0.551858
vn 0.061292 -0.850163 -0.522939
vn 0.061292 -0.850163 -0.522939
vn 0.061293 -0.850164 -0.522939
vn 0.156855 -0.694639 -0.702049
vn 0.156855 -0.694639 -0.702049
vn 0.156855 -0.694639 -0.702049
vn 0.102071 0.592244 0.799267
vn 0.102071 0.592244 0.799267
vn 0.102071 0.592244 0.799267
vn 0.025452 0.636677 0.770711
vn 0.025452 0.636677 0.770711
vn 0.025452 0.636677 0.770711
vn 0.834054 0.242828 0.495368
vn 0.834054 0.242828 0.495368
vn 0.834054 0.242828 0.495368
vn 0.578791 -0.799161 -0.162304
vn 0.578791 -0.799161 -0.162304
vn 0.578791 -0.799161 -0.162304
vn -0.191998 -0.188532 0.963116
vn -0.191998 -0.188532 0.963116
vn -0.191998 -0.188532 0.963116
vn -0.227510 -0.130131 0.965041
vn -0.227510 -0.130131 0.965041
vn -0.227510 -0.130131 0.965041
vn -0.877104 -0.201131 0.436159
vn -0.877104 -0.201131 0.436159
vn -0.877104 -0.201131 0.436159
vn -0.924888 -0.341037 0.168157
vn -0.924888 -0.341037 0.168157
vn -0.924888 -0.341037 0.168157
vn -0.901596 -0.404689 0.152809
vn -0.901596 -0.404689 0.152809
vn -0.901596 -0.404689 0.152809
vn -0.884867 -0.448095 0.127364
vn -0.884867 -0.448095 0.127364
vn -0.884867 -0.448095 0.127364
vn -0.796454 0.345213 0.496477
vn -0.796454 0.345213 0.496477
vn -0.796454 0.345213 0.496477
vn -0.313540 -0.495437 0.810084
vn -0.313540 -0.495437 0.810084
vn -0.313540 -0.495437 0.810084
vn -0.126501 -0.049457 0.990733
vn -0.126501 -0.049457 0.990733
vn -0.126501 -0.049457 0.990733
vn 0.096016 -0.027280 0.995006
vn 0.096016 -0.027280 0.995006
vn 0.096016 -0.027280 0.995006
vn -0.154576 -0.847571 0.507671
vn -0.154576 -0.847571 0.507671
vn -0.154576 -0.847571 0.507671
vn -0.678260 -0.723069 0.130902
vn -0.678260 -0.723069 0.130902
vn -0.678260 -0.723069 0.130902
vn 0.963508 -0.141669 -0.227115
vn 0.963509 -0.141669 -0.227115
vn 0.963509 -0.141669 -0.227115
vn 0.500978 -0.374284 -0.780342
vn 0.500978 -0.374284 -0.780342
vn 0.500978 -0.374284 -0.780342
vn 0.343718 -0.128129 0.930291
vn 0.343718 -0.128129 0.930291
vn 0.343718 -0.128129 0.930291
vn 0.536928 -0.518067 0.665819
vn 0.536929 -0.518067 0.665819
vn 0.536928 -0.518067 0.665819
vn 0.527761 -0.390268 0.754426
vn 0.527761 -0.390268 0.754426
vn 0.527761 -0.390268 0.754427
vn 0.699504 0.093433 0.708495
vn 0.699504 0.093433 0.708495
vn 0.699504 0.093433 0.708495
vn 0.452432 0.251638 -0.855560
vn 0.452432 0.251638 -0.855560
vn 0.452432 0.251638 -0.855560
vn -0.959460 0.281558 0.012699
vn -0.959460 0.281558 0.012699
vn -0.959460 0.281558 0.012699
vn 0.106639 0.553234 0.826172
vn 0.106639 0.553234 0.826172
vn 0.106639 0.553234 0.826172
vn -0.588740 0.775779 0.227050
vn -0.588740 0.775779 0.227050
vn -0.588740 0.775779 0.227050
vn -0.504577 0.797547 0.330638
vn -0.504577 0.797547 0.330638
vn -0.504577 0.797547 0.330638
vn -0.530946 -0.445483 -0.720862
vn -0.530946 -0.445483 -0.720861
vn -0.530946 -0.445483 -0.720862
vn -0.752402 0.331855 -0.569001
vn -0.752402 0.331855 -0.569001
vn -0.752402 0.331855 -0.569001
vn -0.744128 -0.012339 -0.667923
vn -0.744128 -0.012339 -0.667923
vn -0.744128 -0.012339 -0.667923
vn -0.641622 -0.419314 -0.642259
vn -0.641622 -0.419314 -0.642259
vn -0.641622 -0.419314 -0.642259
vn -0.395884 -0.873305 0.283926
vn -0.395884 -0.873305 0.283926
vn -0.395884 -0.873305 0.283926
vn -0.855668 -0.250490 0.452865
vn -0.855668 -0.250490 0.452865
vn -0.855668 -0.250490 0.452865
vn 0.305224 -0.759383 -0.574609
vn 0.305224 -0.759383 -0.574609
vn 0.305224 -0.759383 -0.574609
vn 0.953903 0.299641 0.016821
vn 0.953903 0.299641 0.016821
vn 0.953904 0.299641 0.016821
vn 0.876357 0.065239 0.477224
vn 0.876357 0.065239 0.477224
vn 0.876357 0.065239 0.477224
vn 0.907240 -0.026299 -0.419790
vn 0.907240 -0.026299 -0.419790
vn 0.907240 -0.026299 -0.419790
vn 0.902478 -0.332309 -0.274051
vn 0.902478 -0.332309 -0.274051
vn 0.902478 -0.332309 -0.274051
s off
g tree2:pCube1 tree2:tree2
usemtl tree2:lambert2SG
f 28//1 35//2 13//3
f 28//4 7//5 35//6
f 7//7 30//8 35//9
f 31//10 39//11 10//12
f 1//13 14//14 38//15
f 38//16 14//17 2//18
f 14//19 16//20 2//21
f 12//22 1//23 29//24
f 17//25 9//26 11//27
f 9//28 21//29 11//30
f 23//31 22//32 15//33
f 26//34 25//35 24//36
f 40//37 26//38 13//39
f 13//40 27//41 28//42
f 27//43 29//44 28//45
f 27//46 13//47 32//48
f 5//49 27//50 32//51
f 27//52 5//53 6//54
f 6//55 36//56 33//57
f 12//58 6//59 33//60
f 12//61 27//62 6//63
f 36//64 5//65 24//66
f 5//67 32//68 24//69
f 32//70 26//71 24//72
f 13//73 26//74 32//75
f 8//76 10//77 23//78
f 40//79 25//80 26//81
f 20//82 19//83 41//84
f 7//85 1//86 37//87
f 41//88 24//89 25//90
f 19//91 24//92 41//93
f 30//94 40//95 35//96
f 9//97 20//98 21//99
f 34//100 4//101 3//102
f 11//103 21//104 15//105
f 13//106 35//107 40//108
f 30//109 31//110 10//111
f 7//112 31//113 30//114
f 17//115 11//116 4//117
f 4//118 24//119 17//120
f 31//121 37//122 38//123
f 31//124 38//125 39//126
f 23//127 20//128 8//129
f 19//130 9//131 17//132
f 2//133 16//134 22//135
f 22//136 16//137 15//138
f 16//139 14//140 12//141
f 12//142 33//143 16//144
f 33//145 18//146 16//147
f 33//148 34//149 18//150
f 1//151 12//152 14//153
f 15//154 16//155 18//156
f 38//157 2//158 22//159
f 38//160 22//161 39//162
f 18//163 11//164 15//165
f 34//166 3//167 18//168
f 9//169 19//170 20//171
f 17//172 24//173 19//174
f 22//175 23//176 39//177
f 21//178 20//179 15//180
f 15//181 20//182 23//183
f 23//184 10//185 39//186
f 40//187 41//188 25//189
f 12//190 29//191 27//192
f 31//193 7//194 37//195
f 7//196 28//197 1//198
f 28//199 29//200 1//201
f 24//202 34//203 36//204
f 4//205 34//206 24//207
f 6//208 5//209 36//210
f 36//211 34//212 33//213
f 18//214 3//215 11//216
f 37//217 1//218 38//219
f 4//220 11//221 3//222
f 30//223 8//224 40//225
f 8//226 30//227 10//228
f 40//229 8//230 41//231
f 8//232 20//233 41//234
g default
v 84.326422 100.699224 29.393730
v 83.599679 100.699224 29.392628
v 83.231978 100.699224 30.015405
v 83.590513 100.699224 30.638667
v 84.317581 100.699224 30.640164
v 84.685778 100.699224 30.017990
v 84.249444 102.039171 29.428030
v 83.608654 102.039171 29.425921
v 83.280364 102.039171 29.968703
v 83.592297 102.039171 30.512903
v 84.233452 102.039171 30.515456
v 84.562298 102.039171 29.973351
v 83.955088 100.699224 30.012087
v 84.237998 103.566641 29.494330
v 83.669670 103.566641 29.492596
v 83.381275 103.566641 29.971782
v 83.661166 103.566641 30.452166
v 84.230303 103.566641 30.454224
v 84.518710 103.566641 29.975566
v 84.308757 105.387442 29.583680
v 83.784796 105.387442 29.583498
v 83.525855 105.387442 30.030980
v 83.790958 105.387442 30.478408
v 84.315477 105.387442 30.478723
v 84.574323 105.387442 30.031473
v 84.198650 108.541075 29.665457
v 83.767282 108.541075 29.665480
v 83.984470 108.541076 30.038228
v 83.552395 108.541075 30.038272
v 83.768947 108.541075 30.411039
v 84.200451 108.541075 30.411008
v 84.415266 108.541075 30.038219
vt 0.578125 0.020934
vt 0.421875 0.020934
vt 0.343750 0.156250
vt 0.421875 0.291566
vt 0.578125 0.291566
vt 0.656250 0.156250
vt 0.375000 0.312500
vt 0.416667 0.312500
vt 0.458333 0.312500
vt 0.500000 0.312500
vt 0.541667 0.312500
vt 0.583333 0.312500
vt 0.625000 0.312500
vt 0.375000 0.688440
vt 0.416667 0.688440
vt 0.458333 0.688440
vt 0.500000 0.688440
vt 0.541667 0.688440
vt 0.583333 0.688440
vt 0.625000 0.688440
vt 0.578125 0.708434
vt 0.421875 0.708434
vt 0.343750 0.843750
vt 0.421875 0.979066
vt 0.578125 0.979066
vt 0.656250 0.843750
vt 0.500000 0.150000
vt 0.500000 0.837500
vt 0.578125 0.979066
vt 0.421875 0.979066
vt 0.343750 0.843750
vt 0.421875 0.708434
vt 0.578125 0.708434
vt 0.656250 0.843750
vt 0.578125 0.979066
vt 0.421875 0.979066
vt 0.343750 0.843750
vt 0.421875 0.708434
vt 0.578125 0.708434
vt 0.656250 0.843750
vt 0.578125 0.979066
vt 0.421875 0.979066
vt 0.343750 0.843750
vt 0.421875 0.708434
vt 0.578125 0.708434
vt 0.656250 0.843750
vn 0.002347 0.025274 -0.999678
vn 0.002347 0.025274 -0.999678
vn 0.002756 0.034257 -0.999409
vn 0.002754 0.034210 -0.999411
vn -0.858470 0.015810 -0.512619
vn -0.858470 0.015810 -0.512619
vn -0.856863 0.035966 -0.514288
vn -0.856836 0.036269 -0.514311
vn -0.866161 0.048228 0.497432
vn -0.866161 0.048228 0.497432
vn -0.865360 0.052721 0.498370
vn -0.865342 0.052821 0.498391
vn -0.002947 0.092968 0.995665
vn -0.002947 0.092967 0.995665
vn -0.003370 0.066969 0.997749
vn -0.003372 0.066823 0.997759
vn 0.853820 0.098447 0.511175
vn 0.853820 0.098447 0.511175
vn 0.855254 0.061278 0.514573
vn 0.855242 0.061810 0.514529
vn 0.865290 0.062806 -0.497321
vn 0.865290 0.062806 -0.497321
vn 0.865482 0.044972 -0.498917
vn 0.865481 0.045303 -0.498889
vn 0.000000 -1.000000 -0.000000
vn 0.000000 -1.000000 -0.000000
vn 0.000000 -1.000000 -0.000000
vn 0.000000 -1.000000 0.000000
vn 0.000000 -1.000000 0.000000
vn 0.000000 -1.000000 0.000000
vn 0.000000 -1.000000 -0.000000
vn 0.000001 1.000000 -0.000005
vn -0.000001 1.000000 -0.000005
vn 0.000000 1.000000 -0.000001
vn -0.000002 1.000000 0.000001
vn -0.000001 1.000000 0.000004
vn 0.000001 1.000000 0.000002
vn 0.000002 1.000000 -0.000002
vn 0.002460 0.046404 -0.998920
vn 0.002430 0.046531 -0.998914
vn -0.856573 0.069877 -0.511273
vn -0.856582 0.069949 -0.511247
vn -0.862684 0.055124 0.502731
vn -0.862761 0.055223 0.502588
vn -0.002947 0.011725 0.999927
vn -0.002989 0.013103 0.999910
vn 0.858319 -0.011648 0.512985
vn 0.858305 -0.011442 0.513012
vn 0.863820 0.008392 -0.503731
vn 0.863752 0.007668 -0.503860
vn 0.000811 0.035468 -0.999370
vn 0.000796 0.035252 -0.999378
vn -0.863360 0.037780 -0.503172
vn -0.863334 0.038042 -0.503197
vn -0.862035 0.024060 0.506277
vn -0.862019 0.024790 0.506269
vn -0.001039 0.007459 0.999972
vn -0.001060 0.007065 0.999974
vn 0.863884 0.007504 0.503635
vn 0.863902 0.007857 0.503598
vn 0.861893 0.022174 -0.506605
vn 0.861881 0.022859 -0.506594
vn 0.000166 0.025958 -0.999663
vn 0.000166 0.025958 -0.999663
vn -0.865884 0.008319 -0.500175
vn -0.865884 0.008319 -0.500175
vn -0.862294 0.005443 0.506378
vn -0.862294 0.005443 0.506378
vn -0.000298 0.021406 0.999771
vn -0.000298 0.021406 0.999771
vn 0.865150 0.042426 0.499716
vn 0.865150 0.042426 0.499716
vn 0.861333 0.043861 -0.506144
vn 0.861333 0.043861 -0.506144
s 1
g tree2:tree2 tree2:pCylinder1
usemtl tree2:lambert3SG
f 42/7/235 43/8/236 49/15/237 48/14/238
s 2
f 43/8/239 44/9/240 50/16/241 49/15/242
s 3
f 44/9/243 45/10/244 51/17/245 50/16/246
s 4
f 45/10/247 46/11/248 52/18/249 51/17/250
s 5
f 46/11/251 47/12/252 53/19/253 52/18/254
s 6
f 47/12/255 42/13/256 48/20/257 53/19/258
s 7
f 43/2/259 42/1/260 54/27/261
f 44/3/262 43/2/259 54/27/261
f 45/4/263 44/3/262 54/27/261
f 46/5/264 45/4/263 54/27/261
f 47/6/265 46/5/264 54/27/261
f 42/1/260 47/6/265 54/27/261
s 8
f 67/41/266 68/42/267 69/28/268
f 68/42/267 70/43/269 69/28/268
f 70/43/269 71/44/270 69/28/268
f 71/44/270 72/45/271 69/28/268
f 72/45/271 73/46/272 69/28/268
f 73/46/272 67/41/266 69/28/268
s 1
f 48/25/238 49/24/237 56/30/273 55/29/274
s 2
f 49/24/242 50/23/241 57/31/275 56/30/276
s 3
f 50/23/246 51/22/245 58/32/277 57/31/278
s 4
f 51/22/250 52/21/249 59/33/279 58/32/280
s 5
f 52/21/254 53/26/253 60/34/281 59/33/282
s 6
f 53/26/258 48/25/257 55/29/283 60/34/284
s 1
f 55/29/274 56/30/273 62/36/285 61/35/286
s 2
f 56/30/276 57/31/275 63/37/287 62/36/288
s 3
f 57/31/278 58/32/277 64/38/289 63/37/290
s 4
f 58/32/280 59/33/279 65/39/291 64/38/292
s 5
f 59/33/282 60/34/281 66/40/293 65/39/294
s 6
f 60/34/284 55/29/283 61/35/295 66/40/296
s 1
f 61/35/286 62/36/285 68/42/297 67/41/298
s 2
f 62/36/288 63/37/287 70/43/299 68/42/300
s 3
f 63/37/290 64/38/289 71/44/301 70/43/302
s 4
f 64/38/292 65/39/291 72/45/303 71/44/304
s 5
f 65/39/294 66/40/293 73/46/305 72/45/306
s 6
f 66/40/296 61/35/295 67/41/307 73/46/308
